<?xml version="1.0"?>
<svg xmlns:rdf="http://www.w3.org/1999/02/22-rdf-syntax-ns#" xmlns="http://www.w3.org/2000/svg" xmlns:cc="http://creativecommons.org/ns#" xmlns:dc="http://purl.org/dc/elements/1.1/" xmlns:svg="http://www.w3.org/2000/svg" id="svg2860" viewBox="0 0 73.698 110.02" version="1.1">
  <g id="layer1" transform="translate(-316.01 -411.58)">
    <path id="path2984" d="m389.54 459.18c-0.188-0.501-1.441-0.314-1.691-0.376s-1.128 1.565-1.253 1.753c-0.124 0.188-1.566 1.253-1.754 1.315-0.187 0.062-2.38 0.626-2.629 0.501-0.251-0.125-3.195 1.19-3.195 1.19l-4.071-3.445-4.572-4.948s-3.57-3.508-4.697-4.823c-1.127-1.316-3.446-1.253-3.446-1.253l-4.572 2.13-6.262 2.254 0.061-1.816-0.437-0.564-0.815-2.067 0.063-0.814s0.751-3.444 0.751-3.257c0 0.188 0.876-0.438 1.252-0.563s0.751-1.44 1.064-1.44c0.314 0 1.003-0.94 1.003-0.94s0.124-0.688 0.312-1.063c0.189-0.376-0.375-0.815-0.375-0.815s0.501-0.626 0.626-1.065c0.125-0.438-1.502-0.877-1.502-0.877l7.955-16.91s5.198-5.888 5.385-6.076c0.188-0.188 0.439-1.44 0.439-1.44l0.438-2.192-9.269 6.264 0.438 1.753-1.628 3.069-3.508 8.017s-2.63 4.447-2.693 4.322-0.376-0.125-0.876-0.125-0.188 2.881-0.188 2.881l-2.881 6.075s-2.882-1.817-3.07-1.817-0.812-1.19-0.939-1.44c-0.125-0.25-1.691-2.129-1.816-2.505s-1.691-0.626-2.506-0.751c-0.813-0.125-0.249-0.313-0.188-0.627 0.064-0.313-0.939-0.062-1.251-0.125-0.312-0.062-1.754 0.251-2.442-0.188-0.689-0.438-2.882-3.256-3.194-3.821-0.313-0.563-0.064-1.127-0.064-1.127s0.751-0.626 1.503-0.939 0.564-0.501 0.752-1.19 0.69-1.315 1.314-2.066c0.627-0.751 0.188-1.127 0.127-1.754-0.063-0.626-0.315-0.689-0.878-1.315s-0.563-0.313-0.625-0.814c-0.063-0.501-0.563-1.189-1.002-1.565-0.44-0.376-0.251 0.188-0.877 0.751-0.626 0.564-0.815 0.251-1.19-0.062s-0.688-1.253-0.876-1.692c-0.188-0.438-0.564-1.002-1.066-1.941-0.5-0.939-3.57-1.566-4.195-1.44-0.626 0.125-2.63 0.501-3.132 0.876-0.5 0.376-2.191 2.13-2.504 2.693-0.314 0.563 0.188 1.628 0.312 1.817 0.124 0.188 0.25 0.877 0.187 1.252-0.063 0.376 0.313 1.691 0.188 1.879s-2.505-0.627-2.567-0.814l-0.502 0.188s0.439 1.19 0.439 1.441 0.563 1.879 0.438 2.317c-0.125 0.439 1.378 1.503 1.691 1.628s1.879 0.627 1.879 0.627l1.503 0.752 0.877 0.876-1.066 1.128-2.129 1.19-3.758 2.505s-0.313 2.881-0.375 3.195c-0.062 0.312 0.5 6.074 0.5 6.263 0 0.188-0.062 1.252 0 1.44 0.064 0.188 1.879 0.626 1.879 0.626s3.883 5.575 3.883 5.699c0 0.125 2.505 2.004 2.505 2.004l2.631 3.445s1.127 1.692 1.314 1.817c0.188 0.125-9.395 9.833-9.395 9.833l1.503 0.5s1.816-1.001 1.942-1.127c0.126-0.125 7.892-4.07 7.955-4.007 0.062 0.062 0.375 1.564 0.375 1.564l2.067 5.951s3.507 10.46 3.569 10.648c0.062 0.187 0.062 2.129 0.062 2.504 0 0.377-0.062 1.504-0.25 1.816-0.188 0.313-0.502 1.002-0.627 1.254-0.125 0.249 0 2.004-0.125 2.379-0.125 0.377-1.817 5.072-1.879 5.262-0.062 0.188-0.25 4.571-0.25 4.76 0 0.188-0.439 0.564-0.627 0.438-0.188-0.124-0.813 1.692-1.189 1.755-0.376 0.062-0.063 1.126-0.063 1.753 0 0.626 0.627 1.754 0.752 1.941 0.125 0.188-0.313 1.504-0.627 1.504-0.312 0-0.062 2.38 0 2.63 0.063 0.251 0.564 3.946 0.564 4.135 0 0.188 0.438 1.879 0.438 1.879l1.628 1.503c3.07 1.567 6.264-1.315 6.389-1.127s0.126-1.755 0.126-1.755l-0.251-0.876s-0.563-2.567-0.751-3.006 0.439-3.57 0.439-3.57l-0.564-1.691 0.438-1.003s0.564-2.692 0.69-3.131c0.125-0.439 0.5-2.882 0.5-3.382 0-0.501 1.065-5.199 1.191-5.764 0.125-0.562 0.5-2.504 0.688-2.879 0.188-0.377 0.877-2.632 0.877-3.069 0-0.438 0.313-4.636 0.313-4.636l-0.564-4.385s0.188-2.943 0.251-3.256c0.062-0.314 0.562-6.765 0.562-6.765l4.322 7.39 1.252-11.585h0.314l2.066-1.315 10.396-7.016 8.268 7.453s3.632 3.696 3.884 3.946c0.252 0.251 1.565 0.752 2.191 0.439s1.691 1.314 1.879 1.502 2.568 1.503 2.568 1.503 3.006-4.572 3.194-4.697 1.941-3.444 2.191-3.757c0.251-0.313 1.879-3.256 2.13-3.696 0.255-0.44 0.192-1.317 0.005-1.818zm-49.542-8.644s-0.188-4.259-0.25-4.509l2.756 2.004-2.506 2.505z" fill="#00a14b"/>
  </g>
  <metadata>
    <rdf:RDF>
      <cc:Work>
        <dc:format>image/svg+xml</dc:format>
        <dc:type rdf:resource="http://purl.org/dc/dcmitype/StillImage"/>
        <cc:license rdf:resource="http://creativecommons.org/licenses/publicdomain/"/>
        <dc:publisher>
          <cc:Agent rdf:about="http://openclipart.org/">
            <dc:title>Openclipart</dc:title>
          </cc:Agent>
        </dc:publisher>
        <dc:title>guitar hero</dc:title>
        <dc:date>2010-08-04T10:31:07</dc:date>
        <dc:description>Separated entry of my collection-set of silhouettes. Check my other clip art.</dc:description>
        <dc:source>http://openclipart.org/detail/77179/guitar-hero-by-shokunin</dc:source>
        <dc:creator>
          <cc:Agent>
            <dc:title>shokunin</dc:title>
          </cc:Agent>
        </dc:creator>
        <dc:subject>
          <rdf:Bag>
            <rdf:li>book</rdf:li>
            <rdf:li>books</rdf:li>
            <rdf:li>boy</rdf:li>
            <rdf:li>clip art</rdf:li>
            <rdf:li>clipart</rdf:li>
            <rdf:li>concert</rdf:li>
            <rdf:li>cool laptop</rdf:li>
            <rdf:li>dude</rdf:li>
            <rdf:li>girl</rdf:li>
            <rdf:li>hip hop</rdf:li>
            <rdf:li>man</rdf:li>
            <rdf:li>mic</rdf:li>
            <rdf:li>mike</rdf:li>
            <rdf:li>party girl</rdf:li>
            <rdf:li>party goer</rdf:li>
            <rdf:li>rap</rdf:li>
            <rdf:li>rapper</rdf:li>
            <rdf:li>rock crowd</rdf:li>
            <rdf:li>rock star</rdf:li>
            <rdf:li>shopper</rdf:li>
            <rdf:li>shopping</rdf:li>
            <rdf:li>silhouettes</rdf:li>
            <rdf:li>stand</rdf:li>
            <rdf:li>student</rdf:li>
            <rdf:li>student girl</rdf:li>
            <rdf:li>suit</rdf:li>
            <rdf:li>yo</rdf:li>
          </rdf:Bag>
        </dc:subject>
      </cc:Work>
      <cc:License rdf:about="http://creativecommons.org/licenses/publicdomain/">
        <cc:permits rdf:resource="http://creativecommons.org/ns#Reproduction"/>
        <cc:permits rdf:resource="http://creativecommons.org/ns#Distribution"/>
        <cc:permits rdf:resource="http://creativecommons.org/ns#DerivativeWorks"/>
      </cc:License>
    </rdf:RDF>
  </metadata>
</svg>
