<?xml version="1.0" encoding="UTF-8" standalone="no"?>
<!-- Created with Inkscape (http://www.inkscape.org/) -->

<svg
   xmlns:dc="http://purl.org/dc/elements/1.1/"
   xmlns:cc="http://creativecommons.org/ns#"
   xmlns:rdf="http://www.w3.org/1999/02/22-rdf-syntax-ns#"
   xmlns:svg="http://www.w3.org/2000/svg"
   xmlns="http://www.w3.org/2000/svg"
   xmlns:sodipodi="http://sodipodi.sourceforge.net/DTD/sodipodi-0.dtd"
   xmlns:inkscape="http://www.inkscape.org/namespaces/inkscape"
   width="142.95276mm"
   height="136.85738mm"
   viewBox="0 0 506.52552 484.92771"
   id="svg2"
   version="1.1"
   inkscape:version="0.91 r13725"
   sodipodi:docname="lemmy.svg">
  <defs
     id="defs4" />
  <sodipodi:namedview
     id="base"
     pagecolor="#ffffff"
     bordercolor="#666666"
     borderopacity="1.0"
     inkscape:pageopacity="0.0"
     inkscape:pageshadow="2"
     inkscape:zoom="1.180795"
     inkscape:cx="424.16606"
     inkscape:cy="131.3177"
     inkscape:document-units="px"
     inkscape:current-layer="g4158"
     showgrid="false"
     inkscape:snap-global="false"
     inkscape:window-width="1680"
     inkscape:window-height="987"
     inkscape:window-x="-8"
     inkscape:window-y="-8"
     inkscape:window-maximized="1"
     showguides="true"
     inkscape:guide-bbox="true"
     fit-margin-top="0"
     fit-margin-left="0"
     fit-margin-right="0"
     fit-margin-bottom="0" />
  <metadata
     id="metadata7">
    <rdf:RDF>
      <cc:Work
         rdf:about="">
        <dc:format>image/svg+xml</dc:format>
        <dc:type
           rdf:resource="http://purl.org/dc/dcmitype/StillImage" />
        <dc:title></dc:title>
      </cc:Work>
    </rdf:RDF>
  </metadata>
  <g
     inkscape:label="Ebene 1"
     inkscape:groupmode="layer"
     id="layer1"
     transform="translate(-10.094892,-25.628906)">
    <g
       id="g4158"
       transform="translate(97.969909,-316.83885)">
      <g
         id="g4188">
        <path
           id="path4147"
           transform="translate(-97.969909,316.83885)"
           d="m 141.47266,25.628906 0,0.002 c -1.09215,-0.007 -2.13063,0.127664 -3.04102,0.464844 -4.85541,1.7983 -18.88039,5.393544 -21.9375,6.652344 -3.05711,1.25881 -15.106,6.29498 -16.904296,11.150391 -6.064776,4.61169 -1.756707,19.48267 -5.75586,21.40039 0,0 -6.833659,1.978189 -9.710937,4.855469 -2.877279,2.87728 -10.78835,10.249825 -11.6875,12.947265 -0.899149,2.697451 -3.956604,9.170165 -4.496094,11.328126 -0.53949,2.15796 -1.97937,12.588285 -0.900391,14.566405 1.078981,1.97813 1.979045,7.91264 3.777344,9.71094 1.203544,1.20355 5.264559,3.06696 7.900391,4.21094 -0.02036,0.0488 -0.05611,0.11736 -0.167969,0.28515 -0.04702,0.0705 -0.109153,0.13267 -0.179687,0.17969 -0.111527,0.0743 -0.299431,0.0598 -0.359375,0.17969 -0.08042,0.16084 0.05687,0.37042 0,0.54102 -0.01896,0.0569 -0.137302,-0.0424 -0.179688,0 -0.04239,0.0424 0.02681,0.12606 0,0.17968 -0.08848,0.17696 -0.630271,0.54179 -0.71875,0.71875 -0.02681,0.0536 0.04239,0.1373 0,0.17969 -0.04239,0.0424 -0.154832,-0.0536 -0.18164,0 -0.05362,0.10723 0.05362,0.25215 0,0.35938 -0.02681,0.0536 -0.126073,-0.0268 -0.179688,0 -0.07263,0.0363 -0.71336,0.71336 -0.71875,0.71875 -0.05994,0.0599 -0.119745,0.11973 -0.179688,0.17968 -0.05994,0.0599 -0.141776,0.10581 -0.179687,0.18164 -0.09591,0.19182 0.03583,0.22764 0.179687,0.17969 0.119886,-0.06 0.239488,-0.11975 0.359376,-0.17969 0.119885,0 0.245639,0.0379 0.359374,0 0.112087,-0.0374 0.359376,-0.562 0.359376,0 0,0.11988 0.05362,0.25215 0,0.35938 -0.0039,0.008 -1.062628,1.41425 -1.078126,1.4375 -0.07435,0.11152 -0.110725,0.24443 -0.179687,0.35937 -0.111197,0.18533 -0.262719,0.3477 -0.359375,0.54102 -0.02681,0.0536 0.02681,0.12607 0,0.17969 -0.03791,0.0758 -0.179688,0.095 -0.179688,0.17968 0,0.0599 0.119745,0 0.179688,0 l 0.359375,0 c 0.297097,0 0.60209,0.0696 0.890625,0 0.05778,-0.0665 0.111233,-0.13731 0.1875,-0.17968 1.38482,-0.76935 0.865117,-0.26968 1.341797,-0.4336 0.03035,-0.0389 0.05553,-0.0864 0.09766,-0.10742 0.05362,-0.0268 0.233303,-0.0268 0.179688,0 -0.155767,0.0779 -0.196918,0.0798 -0.277344,0.10742 -0.07891,0.1012 -0.142926,0.22423 -0.261719,0.25391 -0.174461,0.0436 -0.366151,-0.0494 -0.539062,0 -0.257759,0.0736 -0.460634,0.29438 -0.720704,0.35937 -0.0025,6.4e-4 -0.0053,-6.1e-4 -0.0078,0 -0.11065,0.12733 -0.212551,0.26671 -0.351562,0.35938 -0.157723,0.10514 -0.369518,0.095 -0.539063,0.17969 -0.07582,0.0379 -0.119745,0.11973 -0.179687,0.17968 -0.05994,0.0599 -0.152881,0.0993 -0.179688,0.17969 -0.03302,0.099 0.01029,1.01831 0,1.08008 -0.03116,0.18697 -0.07454,0.38133 -0.179688,0.53906 -0.239772,0.35965 -0.179687,-0.41974 -0.179687,0.17969 0,0.0599 -0.05362,0.15289 0,0.17969 0.197778,0.0989 0.958127,-0.23938 0.359375,0.35937 -0.09478,0.0948 -0.247849,0.10534 -0.359375,0.17969 -0.03517,0.0235 -0.970287,0.68081 -1.080078,0.90039 -0.03277,0.0655 0,0.79483 0,0.89844 0,0.0427 -0.02015,0.67845 0,0.71875 0.22004,0.44008 0.833594,-0.0922 0.720703,0.35937 -0.104653,0.41862 -0.09494,0.6315 -0.541016,0.72071 -0.176338,0.0353 -0.378217,-0.0804 -0.539062,0 -0.119887,0.0599 -0.239631,0.23949 -0.179688,0.35937 0.04027,0.0806 0.650072,-0.0687 0.71875,0 0.04239,0.0424 0,0.11975 0,0.17969 0,0.27007 0.04766,0.66015 0,0.89844 -0.02629,0.13144 -0.137301,0.23221 -0.179687,0.35937 -0.03791,0.11374 0,0.2395 0,0.35938 l 0,0.54101 c 0,0.0599 -0.05362,0.15288 0,0.17969 0.107229,0.0536 0.41299,-0.10723 0.359375,0 -0.07233,0.14467 -0.704349,0.44202 -0.898438,0.53906 -0.119887,0.06 -0.285025,0.0682 -0.359375,0.17969 -0.0665,0.0998 0,0.23948 0,0.35937 0,0.0599 -0.04239,0.13731 0,0.17969 0.122163,0.12216 0.357211,-0.18401 0.539063,0.17969 0.02681,0.0536 0,0.11975 0,0.17969 0,0.11249 -0.0043,0.23197 -0.0039,0.34961 -2.347034,0.84976 -11.244497,4.10465 -12.34375,5.04687 -1.258809,1.07898 -6.293498,3.23633 -8.091797,3.23633 -1.7983,0 -4.854472,1.97809 -6.113281,2.51758 -1.258809,0.53949 -5.395916,3.05607 -6.115235,3.77539 -0.71932,0.71932 -3.955322,1.61981 -6.113281,3.23828 -2.157959,1.61847 -8.812174,11.329 -11.689453,17.62305 -2.877279,6.29404 -5.2158,17.44427 -6.47461,21.2207 -1.258809,3.77643 -4.316406,29.85038 -4.316406,33.80664 0,3.95625 1.978516,12.04883 1.978516,12.04883 0,0 -1.797688,1.79933 -3.236328,3.59765 -1.4386394,1.79828 0.538777,3.59638 0.898437,5.21485 0.35966,1.61847 -1.796875,3.95576 -1.796875,5.57422 0,1.61847 2.337321,2.33703 3.056641,3.41601 0.719319,1.07898 -1.977804,4.31584 -2.876953,5.03516 -0.8991504,0.71932 1.797973,3.77649 2.876953,4.85547 1.078979,1.07898 -0.179545,1.61867 -0.359375,4.67578 -0.17983,3.05711 2.517578,3.05802 2.517578,3.77734 0,0.71932 0.718607,14.74648 0.898437,16.72461 0.17983,1.97813 6.653158,4.85533 8.091797,5.03516 1.43864,0.17983 5.396057,4.31583 5.935547,5.03515 0.53949,0.71934 15.464844,12.58789 15.464844,12.58789 -3.873668,2.70055 -9.081912,9.41591 -12.587891,15.64454 -8.822219,24.19147 0.743464,48.38457 14.726563,68.91406 3.638323,5.97756 15.304687,19.74219 15.304687,19.74219 l 5.574219,86.67773 69.054688,-1.97852 1.61914,-8.63085 c 0,0 2.1582,-7.55384 2.1582,-8.63282 0,-1.07898 0.71985,-4.67383 1.79883,-4.67383 1.07898,0 1.79687,-12.94921 1.79687,-12.94921 l 8.63282,-25.17579 c 0,0 2.15802,1.07923 4.85547,2.15821 2.69744,1.07898 5.21551,1.97823 6.83398,2.33789 1.61847,0.35966 1.97656,4.49524 1.97656,5.57422 0,1.07897 1.08047,3.23771 3.0586,3.95703 1.97813,0.71932 6.29297,5.39502 6.29297,9.71094 0,4.31592 3.05788,2.15806 3.95703,2.33789 0.89915,0.17983 6.65248,9.71104 6.47265,12.04882 -0.17983,2.3378 3.5968,7.5526 4.67578,7.73243 1.07898,0.17983 6.47461,11.32812 6.47461,11.32812 l 78.94532,0.53906 c 0,0 -10.79045,-40.82055 -11.50977,-42.97851 -0.71932,-2.15796 -9.35156,-28.41211 -9.35156,-28.41211 0,0 -4.67383,-10.25205 -4.67383,-12.58984 0,-2.33779 -10e-4,-2.33661 -0.7207,-3.95508 -0.71932,-1.61847 -1.97809,-1.79964 -2.51758,-3.23828 -0.53949,-1.43864 -0.53864,-1.97752 -1.07813,-3.23633 -0.53949,-1.25881 -1.61885,-2.51701 -1.97851,-3.23633 -0.35966,-0.71931 -1.07813,-2.87819 -1.07813,-3.77734 0,-0.89915 -1.80007,-2.69627 -2.69922,-3.95508 -0.89915,-1.25881 0.17998,-3.05774 -0.17968,-4.13672 -0.35966,-1.07898 -1.79688,-3.77539 -1.79688,-3.77539 0,0 -0.54073,-2.33913 -0.90039,-3.23828 -0.35966,-0.89915 -1.97656,-5.57422 -1.97656,-5.57422 l -3.77735,-6.11524 -2.33789,-8.09179 -3.77539,-12.94727 c 0,0 -0.54077,-5.03597 1.61719,-6.47461 2.15796,-1.43864 -1.25781,-6.29297 -1.25781,-6.29297 0,0 -5.3e-4,-1.07879 -1.79883,-2.69726 -1.7983,-1.61847 -0.18025,-4.67698 0.53906,-8.09375 0.71934,-3.41676 -5.21565,-12.9461 -6.65429,-16.90235 -1.43864,-3.95628 -0.17969,-10.07226 -0.17969,-10.07226 l 24.53515,-16.58399 c 2.83747,1.1847 6.25927,1.82474 9.77344,1.82813 0.17521,-0.002 0.35037,-0.007 0.52539,-0.0117 1.01966,2.46397 5.56588,3.67072 8.14649,4.875 2.69745,1.25881 7.01334,-1.07812 9.89062,-1.07812 2.87728,0 6.32566,-0.0385 8.80469,-0.39649 2.84143,-0.41032 4.86258,-3.19989 5.76172,-4.81836 0.89915,-1.61847 -0.51808,-2.8347 1.25781,-3.77734 4.09343,-2.17278 3.45967,-5.95299 3.95703,-6.47266 1.92806,-2.01457 3.2153,-2.76308 3.07813,-5.45312 -0.20904,-4.09937 -0.74024,-4.43722 -0.74024,-4.79688 0,-0.35966 2.69784,-4.85571 1.97852,-7.01367 -0.71932,-2.15796 -3.41797,-5.03516 -3.41797,-5.03516 l -2.1582,-1.97851 c 0,0 125.7018,-84.33953 129.83789,-87.2168 4.13609,-2.87728 13.48739,-3.5978 17.08398,-3.41797 3.5966,0.17983 11.86772,2.69727 13.66602,2.69727 1.7983,0 2.51806,-5.574 6.83398,-10.78906 0.60413,-0.72998 1.40355,-1.52075 2.32813,-2.34571 0.9366,1.39774 1.82878,3.27743 1.43945,5.04883 -0.74191,3.37556 -1.11017,4.06742 0.70117,4.82227 3.55795,1.48272 7.98611,-3.7167 8.42969,-5.22852 0,0 1.90863,-3.19766 -2.77149,-3.27148 -2.7896,-0.044 -4.79683,-1.53272 -6.02148,-2.86719 5.98223,-4.80071 15.57939,-10.46574 22.15039,-13.96094 1.553,-0.82607 3.37134,-1.68977 5.26758,-2.55859 0.87745,1.41717 1.68054,3.28985 1.24609,5.01953 -0.84194,3.35201 -1.23144,4.03345 0.55664,4.8418 3.5123,1.58784 8.0937,-3.4786 8.58203,-4.97657 0,0 2.00398,-3.13865 -2.67187,-3.35156 -2.45412,-0.11177 -4.26777,-1.32644 -5.47852,-2.55078 7.99297,-3.52146 17.24972,-6.95422 20.73047,-8.29297 4.67558,-1.7983 4.67692,-4.49691 3.23828,-5.93555 -6.66736,-5.77902 -20.99946,-10.27067 -20.50195,-19.78125 0.17983,-2.877279 2.50908,-0.30255 4.67578,0 2.22004,0.31 4.13345,-1.50768 4.67578,-3.236327 0.72223,-2.30204 -0.89939,-7.372435 -2.1582,-10.609375 -2.25,-3.02131 -5.3988,-4.272243 -8.87109,-4.289063 l 0,0.002 c -5.78716,-0.028 -12.47175,3.370488 -17.38282,7.705078 -2.18169,2.05309 -4.21681,3.879157 -6.17187,5.566407 -0.38317,-1.24235 -0.54139,-2.610793 -0.0625,-3.814454 1.27766,-3.211299 1.75339,-3.835406 0.0879,-4.873046 -3.27158,-2.03822 -8.48198,2.376615 -9.16406,3.796875 0,0 -2.39964,2.846611 2.20703,3.675781 2.24431,0.40396 3.81885,1.681307 4.86523,2.960937 -8.16838,6.794327 -14.6904,10.663057 -21.82031,13.871087 -0.84809,-1.55362 -1.76039,-3.86011 -1.04297,-5.79883 1.19944,-3.24131 1.65894,-3.87607 -0.0312,-4.87304 -3.32001,-1.958318 -8.42286,2.5812 -9.07031,4.01758 0,0 -2.33049,2.90577 2.29492,3.62304 2.92397,0.45343 4.77061,2.3972 5.76367,3.9375 -5.04745,2.15826 -10.49605,4.1288 -17.1289,6.6836 0.71741,11.59678 -5.53023,20.41257 -14.02735,27.33398 L 266.89258,242.9707 c 0,0 -0.36047,-0.72066 -1.43946,-3.23828 -1.07898,-2.51762 -5.58089,-1.69693 -7.01367,-1.25781 -1.55695,0.47718 -4.49609,3.05664 -4.49609,3.05664 l -10.42969,-24.81641 2.33789,-1.25781 0,-1.61914 c 0,0 -2.15684,-1.07922 -1.4375,-2.1582 0.71931,-1.07898 0.71794,-2.33745 -0.7207,-2.87696 -1.43864,-0.53949 -2.15778,-1.25834 -2.69727,-3.05664 -0.53949,-1.7983 -10.42883,-32.37062 -11.50781,-35.42773 -1.07898,-3.05711 -6.83423,-13.48686 -8.99219,-15.28516 -2.06866,-1.72388 -21.42566,-7.53772 -25.92773,-9.6582 -0.2681,-0.51319 0.2052,-1.0213 -0.50195,-1.39844 -1.60657,-0.85684 -16.9961,-3.84765 -16.9961,-3.84765 -0.38711,0.12763 -0.51466,0.3709 -0.61719,0.625 -4.05597,-0.75224 -6.84933,-1.18578 -8.08203,-1.37305 -0.0328,-0.0555 -0.0657,-0.11106 -0.0859,-0.17188 -0.0554,-0.16609 0.0969,-0.45821 0.17968,-0.54101 0.0424,-0.0424 0.11975,0 0.17969,0 0.1507,0 0.82201,0.0382 0.89844,0 0.0536,-0.0268 0,-0.11969 0,-0.17969 0,-0.11988 -0.0379,-0.24563 0,-0.35937 0.11928,-0.35785 0.16756,-0.0838 0.35937,-0.17969 0.0758,-0.0379 0.14178,-0.10389 0.17969,-0.17969 0.0268,-0.0536 0,-0.11969 0,-0.17969 0,-0.17983 0.0569,-0.36846 0,-0.53906 -0.0546,-0.16378 -0.4895,-0.2788 -0.35937,-0.53906 0.0536,-0.10723 0.23949,0 0.35937,0 0.16072,0 0.84308,0.0287 0.90039,0 0.0758,-0.0379 0.14178,-0.10584 0.17969,-0.18164 0.0268,-0.0536 0,-0.11979 0,-0.17969 0,-0.68632 0.0851,-0.0521 -0.35938,-0.71875 -0.0333,-0.0499 0.0268,-0.12609 0,-0.17969 -0.0379,-0.0758 -0.14373,-0.10388 -0.18164,-0.17968 -0.0268,-0.0536 0.0424,-0.13729 0,-0.17969 -0.0424,-0.0424 -0.12607,0.0268 -0.17968,0 -0.0758,-0.0379 -0.11975,-0.11969 -0.17969,-0.17969 -0.0599,-0.0599 -0.15288,-0.0993 -0.17969,-0.17969 -0.0285,-0.0855 0,-1.2782 0,-1.43945 l 0,-0.17969 c 0,-0.0599 0.0268,-0.12608 0,-0.17968 -0.0379,-0.0758 -0.14178,-0.10389 -0.17969,-0.17969 -0.0268,-0.0536 0.0332,-0.12979 0,-0.17969 -0.13833,-0.20749 -0.40073,-0.33157 -0.53906,-0.53906 -0.0744,-0.11153 -0.0849,-0.26458 -0.17969,-0.35938 -0.37208,-0.37208 0.0148,0.56676 -0.35937,-0.18164 -0.0268,-0.0536 0.019,-0.12279 0,-0.17969 -0.0424,-0.12716 -0.14718,-0.22934 -0.17969,-0.35937 -0.0119,-0.0474 -0.0121,-1.04192 0,-1.07813 0.0268,-0.0804 0.11975,-0.11978 0.17969,-0.17968 0.0599,-0.06 0.10387,-0.14179 0.17969,-0.17969 0.0536,-0.0268 0.13729,0.0424 0.17968,0 0.0424,-0.0424 -0.0424,-0.13729 0,-0.17969 -0.32187,-0.14266 -0.0271,-0.94081 -0.17968,-2.51758 -0.0569,-0.1706 0,-0.36118 0,-0.54101 0,-0.0676 -0.004,-0.89444 0,-0.89844 0.0424,-0.0424 0.15287,0.0536 0.17968,0 0.0536,-0.10723 -0.0291,-0.24306 0,-0.35937 0.2171,-0.86839 0.0852,0.009 0.35938,-0.53907 0.0236,-0.0473 0,-0.6267 0,-0.7207 0,-0.0711 0.0384,-0.82164 0,-0.89844 -0.0758,-0.15165 -0.28356,-0.20773 -0.35938,-0.35937 -0.0268,-0.0536 0.0268,-0.12609 0,-0.17969 -0.0234,-0.0468 -0.32026,-0.2188 -0.17968,-0.35938 0.1472,-0.14719 0.30319,0.16569 0.35937,0.17969 0.23262,0.0582 0.47898,0 0.71875,0 0.11989,0 0.24564,0.0379 0.35938,0 0.0804,-0.0268 0.15287,-0.0993 0.17968,-0.17969 0.0351,-0.10521 0,-0.92572 0,-1.08007 0,-0.0599 -0.0424,-0.13729 0,-0.17969 0.0424,-0.0424 0.1217,0 0.18164,0 0.24367,0 0.51997,0.0191 0.71875,-0.17969 -0.11988,0 -0.35937,0.11989 -0.35937,0 0,-0.11989 0.44415,-0.0848 0.35937,0 l 0.17969,0 0.71875,0 c -0.0424,-0.0424 0.0268,-0.12609 0,-0.17969 -0.0686,-0.1373 -0.70917,-0.54863 -0.53906,-0.71875 0.0424,-0.0424 0.11975,0 0.17969,0 0.0599,0 0.13729,-0.0424 0.17968,0 0.0424,0.0424 -0.0424,0.13729 0,0.17969 0.23345,0.23343 0.43386,0.17969 0.71875,0.17969 0.11989,0 0.27656,0.0848 0.36133,0 0.0599,-0.0599 -0.14373,-0.10389 -0.18164,-0.17969 -0.0268,-0.0536 0,-0.11978 0,-0.17969 l 0,-0.90039 c 0,-0.5284 0.23411,-0.0636 0.36133,0 0.0536,0.0268 0.11975,0 0.17969,0 0.0599,0 0.13729,0.0424 0.17969,0 0.0424,-0.0424 0,-0.11978 0,-0.17968 0,-0.11989 0.0536,-0.25215 0,-0.35938 -0.0268,-0.0536 -0.1373,0.0424 -0.17969,0 -0.43677,-0.43677 0.0538,-0.26364 -0.35938,-0.53906 -0.34736,-0.23158 -0.41056,-0.13933 -0.625,-0.41602 -0.1506,-0.10289 -0.29872,-0.20892 -0.45508,-0.30273 -0.11493,-0.069 -0.41931,-0.0617 -0.35937,-0.18164 0.0599,-0.11989 0.22934,0.14913 0.35937,0.18164 0.11631,0.0291 0.25215,-0.0536 0.35938,0 0.0536,0.0268 -0.0333,0.12982 0,0.17969 0.0396,0.0594 0.0644,0.0827 0.0957,0.12304 0.0279,0.0191 0.0559,0.036 0.084,0.0547 0.0599,0 0.12606,-0.0268 0.17968,0 0.0758,0.0379 0.0949,0.17969 0.17969,0.17969 0.0599,0 0,-0.11979 0,-0.17969 0,-0.0599 0.019,-0.12279 0,-0.17969 -0.0424,-0.12716 -0.11975,-0.24144 -0.17969,-0.36132 0,-0.0599 0.019,-0.12279 0,-0.17969 -0.0424,-0.12716 -0.14717,-0.22934 -0.17968,-0.35938 -0.0291,-0.11631 0.0291,-0.24306 0,-0.35937 -0.20664,-0.82655 -0.17969,-0.0404 -0.17969,-0.53906 l 0,-0.17969 c 0,-0.0599 0.0424,-0.13729 0,-0.17969 -0.0948,-0.0948 -0.2646,-0.0849 -0.35938,-0.17969 -0.0424,-0.0424 0.0424,-0.13729 0,-0.17969 -0.0424,-0.0424 -0.13729,0.0424 -0.17968,0 -0.0424,-0.0424 0.0424,-0.13924 0,-0.18164 -0.37208,-0.37207 0.0148,0.56873 -0.35938,-0.17968 -0.0268,-0.0536 0.0268,-0.12609 0,-0.17969 -0.0379,-0.0758 -0.14178,-0.10389 -0.17969,-0.17969 -0.0268,-0.0536 0.0424,-0.13729 0,-0.17969 -0.0948,-0.0947 -0.26459,-0.0849 -0.35937,-0.17968 -0.0424,-0.0424 0.0424,-0.13729 0,-0.17969 -0.0424,-0.0424 -0.1373,0.0424 -0.17969,0 -0.0948,-0.0948 -0.0849,-0.26458 -0.17969,-0.35938 -0.23977,-0.23973 -0.18164,0.29987 -0.18164,-0.17968 -0.0141,-0.0283 -0.30551,-0.31078 -0.51171,-0.51172 0.3946,-1.52865 0.78531,-2.92738 0.87304,-3.80469 0.17983,-1.79829 -1.61971,-8.451699 -0.90039,-10.249999 0.71932,-1.7983 3.77735,-2.697266 3.77735,-2.697266 0,0 5.57513,-4.135854 9.35156,-5.214844 3.77643,-1.07898 3.23671,-0.720275 5.21484,-1.259765 1.97813,-0.53949 2.33714,-0.539021 5.75391,-3.056641 3.41677,-2.51762 5.75419,-7.372477 5.39453,-8.091797 -0.35966,-0.71932 -0.35837,-3.058166 -1.61719,-3.597656 -1.25881,-0.53949 -3.77773,-1.978516 -5.75586,-1.978516 -1.97813,0 -9.35056,1.079793 -10.60937,1.439453 -1.25881,0.35966 -4.13672,0.359375 -4.13672,0.359375 0,0 -2.15835,-1.618 -1.97852,-3.05664 0.17983,-1.43864 -0.53945,-6.115235 -2.51758,-6.115235 -1.97812,0 -2.87695,-3.05664 -2.87695,-3.05664 l -1.4375,-3.416016 -0.90039,-1.798828 c 0,0 0.71989,-5.573791 -0.71875,-6.113281 -1.43864,-0.53949 -0.53906,-1.978516 -0.53906,-1.978516 0,0 -1.07951,-3.05664 -1.79883,-3.05664 -0.71932,0 -3.05664,-1.619141 -3.05664,-1.619141 0,0 -7.374,-14.386291 -8.63281,-14.925781 -1.02279,-0.43834 -6.79274,-3.13186 -11.52539,-3.16211 z m 30.94726,94.697264 c 0.0424,0.0424 0.23963,0 0.17969,0 l -0.17969,0 z"
           style="fill:#000000;fill-rule:evenodd;stroke:none;stroke-width:1px;stroke-linecap:butt;stroke-linejoin:miter;stroke-opacity:1"
           inkscape:connector-curvature="0" />
        <path
           sodipodi:nodetypes="ccccccsssssssscccscccccccccccccccccccssssccccssccsccscccscsscscsccccccssccccsscccssssscssccsscsscccsccsccssscscssscsssssscscccssccsscssccccsscscsssccccsssccscsccsccccscccsccccsccscccccscscssscccsccsccccssscccccsccccccccccccccccccccccccccccssccssscccccccsscccsssscsccsscssccssccccccccccccccccscccccccsscssscccsccsccssccccccccccccccssssccccscccccscccccccccsccsccccccccccccccccccccccccscccsscssccsssssscccccccccccsscccsccccccccccscscccccsccsccccccccccccccccscccccccccccccccccccccccccccccccccccccccccccsccccccccccscccccccscscssssssccscsccscccsccccccssscccccccccccccsscsssssccsssssssssssssss"
           inkscape:connector-curvature="0"
           id="path4283"
           transform="translate(-97.969909,316.83885)"
           d="m 155.29688,32.201172 0.0488,0.15625 c 0.4826,1.54687 1.64529,3.921244 2.58399,5.277344 0.14422,0.20836 0.24426,0.380165 0.36914,0.572265 z m 4.19921,8.986328 c -0.17371,0.70456 -1.15205,0.803133 -2.97461,0.345703 -3.9926,-1.00209 -11.27021,2.025602 -13.10351,5.451172 -1.1023,2.05966 -1.00747,3.478589 0.42773,6.355469 1.7844,3.57684 1.74838,3.705078 -1.07812,3.705078 -3.7406,0 -6.88281,1.201132 -6.88281,2.632812 0,0.61395 1.60064,1.117188 3.55664,1.117188 1.9559,0 4.53582,1.082067 5.73242,2.404297 1.6238,1.79428 3.22706,2.232758 6.32226,1.730469 3.2285,-0.523911 4.42852,-0.147965 5.41602,1.697265 1.9714,3.68359 8.17938,3.61103 10.17578,-0.119141 0.8963,-1.674358 1.29251,-3.926286 0.87891,-5.003906 -0.4135,-1.07763 -0.48405,-1.958984 -0.15625,-1.958984 0.3277,0 1.50291,2.267019 2.61133,5.037109 1.5778,3.94345 1.50801,5.130965 3.48046,4.740235 l 0.57422,-2.134766 c -9.23775,-6.94776 -2.76041,-6.000648 -4.7539,-8.923828 L 170.82617,55.8125 166.5332,47.5 l -3.98632,-4.384766 -2.27149,-1.435546 -0.11914,0.240234 -0.23047,-0.460938 z m -4.07617,2.238281 c 3.1971,-0.0812 5.75065,0.582271 6.71485,1.744141 1.962,2.36403 0.2187,2.372892 -6.875,0.03516 l -5,-1.648437 z m -7.87109,3.283203 c 0.25447,0.007 0.5321,0.0282 0.83594,0.0625 1.7138,0.19375 3.88356,1.119874 4.82226,2.058594 1.4424,1.44234 1.29886,1.836992 -0.93164,2.544922 -1.4517,0.46074 -2.64062,1.643986 -2.64062,2.628906 0,0.98492 -0.49241,1.791016 -1.09571,1.791016 -2.0529,0 -4.09739,-3.603801 -3.68359,-6.494141 0.28157,-1.9666 0.91203,-2.638697 2.69336,-2.591797 z m 18.13281,3.16211 c 0.61002,-0.0102 1.24713,0.21784 1.67969,0.65039 0.692,0.69207 1.06452,2.224097 0.82812,3.404297 -0.3883,1.93924 -0.64676,1.9028 -2.69726,-0.36914 -1.6064,-1.77989 -1.84988,-2.774037 -0.83008,-3.404297 0.29707,-0.1836 0.65352,-0.27514 1.01953,-0.28125 z m -5.55273,4.972656 c 1.10521,-0.0536 1.75074,0.265317 2.37109,0.935547 1.2124,1.30985 1.06022,1.473605 -0.76758,0.828125 -1.253,-0.44247 -3.32251,-0.244077 -4.59961,0.439453 -1.2772,0.68353 -2.50275,2.354021 -2.72265,3.712891 -0.3035,1.87557 -0.85199,2.176533 -2.27539,1.251953 -1.6666,-1.08261 -1.6666,-1.353166 0,-2.447266 1.5637,-1.02649 1.4599,-1.247825 -0.625,-1.328125 -1.375,-0.053 0.19633,-0.993787 3.49023,-2.091797 2.4588,-0.81963 4.02369,-1.247161 5.12891,-1.300781 z m 2.63086,7.201172 c 1.0313,0 1.875,0.810101 1.875,1.800781 0,2.0883 -1.78272,3.498631 -2.94922,2.332031 -1.494,-1.49394 -0.80858,-4.132812 1.07422,-4.132812 z m -30.9375,13.769531 c -1.8906,-0.0105 -3.4375,0.605534 -3.4375,1.371094 0,0.93876 -1.80749,1.122457 -5.55469,0.560547 l -5.55664,-0.833985 -0.83008,4.429688 c -0.4572,2.43666 -1.37421,4.095217 -2.03711,3.685547 -0.7335,-0.45342 -0.71655,0.163009 0.0449,1.574218 1.9802,3.66963 3.09947,7.18604 2.82617,8.88086 -0.1386,0.85937 0.33514,1.5625 1.05274,1.5625 0.7177,0 1.30469,0.74484 1.30469,1.65625 0,0.91141 1.39029,2.961858 3.08789,4.556638 -1.03098,2.69739 0.99033,4.72073 0.40429,6.22266 0.45867,0.29012 0.48467,0.49277 0.43555,0.59961 0.0268,-0.0237 0.0148,-0.0285 0.0762,-0.0664 0.5485,-0.33896 0.9961,0.34512 0.9961,1.52149 0,1.17636 2.3906,4.29588 5.3125,6.93164 6.111,5.51255 6.12514,5.52077 5.05664,2.73632 -0.6061,-1.57934 -0.29537,-1.8974 1.26953,-1.29687 1.3156,0.50482 2.51992,-0.0382 3.29492,-1.48633 0.9573,-1.78867 0.42143,-3.17928 -2.48047,-6.42969 -4.1265,-4.62198 -4.91995,-6.43456 -1.43555,-3.28125 2.8977,2.62234 5.23243,0.6122 5.23243,-4.5039 0,-3.94834 -2.48286,-7.160158 -5.53516,-7.160158 -1.0804,0 -1.96484,-0.471678 -1.96484,-1.048828 0,-0.57714 -1.32788,-1.654892 -2.95118,-2.394532 -1.6234,-0.739649 -3.22846,-2.409214 -3.56836,-3.708984 -0.5115,-1.9559 0.10297,-2.384122 3.57227,-2.482422 2.6466,-0.075 3.89185,0.368182 3.37695,1.201172 -0.537,0.86895 -0.21684,0.934123 0.93946,0.189453 0.9656,-0.62184 3.11177,-1.130859 4.76757,-1.130859 4.5984,0 4.49111,-2.670163 -0.15039,-3.751953 -2.2612,-0.52703 -4.62776,-0.851463 -5.25976,-0.720703 -0.632,0.13077 -0.42818,-0.629497 0.45312,-1.691407 1.3294,-1.60186 1.24181,-2.070963 -0.51757,-2.746093 -1.68611,-0.64701 -1.77873,-1.028811 -0.45313,-1.869141 1.1441,-0.72522 0.5872,-1.063042 -1.77148,-1.076172 z m 28.4375,2.007813 2.28125,2.625 c 1.2544,1.44398 4.0669,3.505431 6.25,4.582031 4.5204,2.22935 19.18165,2.688566 22.09375,0.691406 1.3323,-0.91366 -0.13426,-1.056117 -5.06836,-0.492187 -7.9353,0.90694 -16.18213,-0.908529 -21.79493,-4.798828 z m -58.96485,7.132812 c -2.666284,-0.11717 -6.04572,0.805236 -7.57617,2.878906 -2.0402,2.76434 -1.218622,9.029956 2.017578,15.384766 2.5438,4.99508 8.021792,7.47514 11.587892,5.24805 1.2529,-0.7824 2.56331,-1.42188 2.91211,-1.42188 0.827,0 0.10365,4.7108 -0.87305,5.6875 -0.414,0.41396 0.14674,2.31835 1.24414,4.23047 2.6681,4.64884 4.68645,-1.26437 4.55469,-3.13477 -0.13086,-1.8576 -0.23373,-1.98517 0.20117,-3.35546 0.5243,-1.65193 0.32395,-2.20383 -0.59375,-1.63672 -0.7611,0.47042 -1.38476,0.26127 -1.38476,-0.4668 0,-0.72807 0.46841,-1.32422 1.04101,-1.32422 1.6465,0 0.81571,-4.02014 -1.71289,-8.281248 -1.5272,-2.57358 -3.30025,-3.90625 -5.19727,-3.90625 -3.30849,0 -3.48678,0.655784 -1.05078,3.871094 1.8271,2.411594 1.32087,5.816404 -0.86523,5.816404 -0.7843,0 -0.72706,-0.65525 0.15234,-1.71484 1.1398,-1.37339 0.6738,-1.86484 -2.3457,-2.46875 -4.0281,-0.805624 -4.9118,-3.402875 -2.0625,-6.064455 1.4394,-1.34466 1.3902,-1.838256 -0.3125,-3.134766 -1.4221,-1.08276 -1.536161,-1.550125 -0.38477,-1.578125 0.8997,-0.0219 1.28819,-0.601562 0.86329,-1.289062 -0.4249,-0.6875 -0.17527,-1.25 0.55273,-1.25 0.7281,0 1.3318,0.70312 1.3418,1.5625 0.0128,1.04744 0.40616,0.949968 1.19336,-0.294922 1.317,-2.08301 -0.63645,-3.240252 -3.30274,-3.357422 z m -5.617186,4.589844 c 0.572901,0 1.041016,1.6875 1.041016,3.75 0,4.08208 -0.0254,4.140636 -1.25,2.916016 -1.1994,-1.19939 -1.027916,-6.666016 0.208984,-6.666016 z m 406.275386,1.724609 c -0.38328,0.0037 -0.85535,0.281532 -1.48046,0.84375 l -83.23243,53.802739 c 14.51532,-1.84847 35.8305,-21.18543 63.61133,-22.01368 1.06451,1.1779 -9.34497,6.77014 -14.82226,10.73438 -4.90427,3.54951 -26.38958,17.83549 -31.82227,21.93555 -5.43267,4.10006 -11.21759,8.99788 -9.47656,8.8125 1.74105,-0.1854 57.59693,-33.90593 60.67383,-35.87696 3.07691,-1.97104 21.11328,-12.63672 21.11328,-12.63672 0,0 -6.78545,-4.37624 -9.99024,-8.19726 -1.3374,-1.59457 -2.97333,-6.16394 -2.14062,-8.20117 0.84376,-2.064258 2.13025,-1.694581 3.20312,-1.091801 1.6566,0.930731 3.16993,1.015621 3.16993,1.015621 3.65132,-1.006062 2.8284,-4.528294 2.68359,-6.886714 -0.45634,-1.488632 -0.85142,-2.246355 -1.49024,-2.240235 z M 96.113281,99.580078 c 0.20318,0.002 0.76921,0.417474 1.75586,1.173832 1.3157,1.00858 2.569509,1.9368 2.787109,2.0625 0.2176,0.1257 -0.1763,0.58182 -0.875,1.01367 -0.6987,0.43185 -1.952609,-0.49637 -2.787109,-2.0625 -0.804657,-1.51001 -1.142091,-2.190092 -0.88086,-2.187502 z m 60.363279,1.433592 c -1.47812,0.0368 -2.95569,0.35693 -3.99609,1.00586 -1.8092,1.12846 -1.49194,1.24432 1.72265,0.63086 2.25432,-0.43019 4.29422,-0.18607 4.76172,0.57031 1.1455,1.85354 3.48824,1.65891 2.86524,-0.23828 -0.42825,-1.30425 -2.88998,-2.03006 -5.35352,-1.96875 z m -10.41406,24.59766 -2.11133,3.22265 c -1.6521,2.5215 -1.78951,3.61016 -0.63281,5.00391 0.8222,0.99074 2.69164,1.51156 4.21094,1.17188 1.5026,-0.33593 3.29297,-0.73214 3.98047,-0.87891 2.8102,-0.59992 2.28144,-2.55998 -1.47266,-5.45508 z m 266.22656,24.35156 c -0.40095,-9.6e-4 -0.63992,0.44669 -0.41601,0.7793 l 9.95507,15.1875 c 0.36589,0.5586 1.20379,0.01 0.8379,-0.54883 l -9.95704,-15.1875 c -0.0917,-0.14323 -0.24986,-0.23005 -0.41992,-0.23047 z m -289.03711,3.33203 c -2.4852,0 -3.19565,1.84019 -1.18945,3.08008 0.647,0.3999 2.38985,3.15708 3.87305,6.12695 2.3082,4.62165 3.17502,5.33264 6.01172,4.94336 3.2593,-0.44729 3.26538,-0.43372 0.39648,0.82031 -1.6044,0.70135 -2.62051,1.97961 -2.25781,2.83985 0.3626,0.86022 1.95541,5.63729 3.54101,10.61523 1.5855,4.97794 3.16412,9.05269 3.50782,9.05469 1.2547,0.009 13.62812,-25.41895 12.92382,-26.55859 -0.3994,-0.64612 -2.34513,-0.8509 -4.32421,-0.45508 -3.80752,0.7615 -4.58001,-0.23641 -2.09961,-2.7168 1.1667,-1.16666 1.07287,-1.5 -0.42383,-1.5 -1.0584,0 -2.56456,1.40625 -3.34766,3.125 -0.7832,1.71875 -2.03961,3.125 -2.79101,3.125 -0.7513,0 -0.46153,-0.90372 0.64257,-2.00781 1.6181,-1.61812 1.70774,-2.36876 0.46094,-3.87109 -1.3588,-1.63728 -1.63851,-1.6062 -2.29101,0.2539 -0.6752,1.92494 -0.89092,1.93702 -2.38672,0.13477 -0.9049,-1.09034 -2.13854,-1.67853 -2.74024,-1.30664 -0.6017,0.37188 -0.75615,-0.2026 -0.34375,-1.27735 0.5433,-1.41589 0.1979,-1.74264 -1.2539,-1.18554 -1.219,0.46779 -2.30544,-0.0167 -2.77344,-1.23633 -0.4231,-1.10258 -1.83337,-2.00391 -3.13477,-2.00391 z m 58.03125,1.83399 -4.7832,3.18945 -1.06055,6.36328 c 2.8557,-0.18455 2.98893,0.17957 1.77149,1.64648 -1.4547,1.75286 -1.2866,2.4717 1.1914,5.10938 3.5803,3.81104 10.05561,5.1473 15.00391,3.09766 4.93959,-2.04608 4.88766,-5.98156 -0.17773,-13.34375 -0.72354,-1.05164 -1.28753,-1.9153 -1.73438,-2.65821 z m 1.17578,5.01171 c 2.06178,0.0118 5.57742,1.0623 6.96094,2.42579 1.3789,1.35899 1.36974,1.74789 -0.0508,2.29297 -1.9652,0.75414 -8.48437,-2.33592 -8.48437,-4.02149 0,-0.49229 0.63705,-0.70261 1.57421,-0.69727 z m 207.91993,3.09961 c -0.40351,-0.004 -0.64491,0.44758 -0.41797,0.78125 l 11.15234,17.00977 c 0.36318,0.57014 1.21469,0.0111 0.83594,-0.54883 l -11.15039,-17.00976 c -0.0912,-0.14398 -0.24948,-0.23158 -0.41992,-0.23243 z M 186.75,169.56445 c 0.8188,-0.0105 1.83487,0.54297 2.25977,1.23047 0.9591,1.55191 0.5264,1.55191 -1.875,0 -1.1266,-0.72808 -1.27927,-1.21917 -0.38477,-1.23047 z m 183.68555,6.31641 c -0.40096,-9.7e-4 -0.63993,0.44669 -0.41602,0.7793 l 10.55469,16.09765 c 0.35434,0.60344 1.2469,0.0195 0.83594,-0.54687 l -10.55469,-16.09961 c -0.0917,-0.14323 -0.24986,-0.23005 -0.41992,-0.23047 z m -181.42578,1.16211 0,0.002 c -3.0348,0 -3.99062,1.21652 -2.29102,2.91602 1.0145,1.01459 0.99125,1.0138 3.43945,0.0742 3.0431,-1.16775 2.34277,-2.99219 -1.14843,-2.99219 z m 163.41211,9.7793 c -0.40095,-9.6e-4 -0.63992,0.44668 -0.41602,0.77929 l 11.84766,18.07227 c 0.35434,0.60349 1.24696,0.0195 0.83593,-0.54688 L 352.8418,187.05469 c -0.0912,-0.14397 -0.24948,-0.23157 -0.41992,-0.23242 z m -161.78711,2.72265 c -4.1924,0 -3.6506,1.76888 0.875,2.85742 1.375,0.33074 2.6406,0.66835 2.8125,0.74805 0.1719,0.0798 0.3125,-0.69922 0.3125,-1.73047 0,-1.27604 -1.2778,-1.875 -4,-1.875 z m -2.1211,3.75 c -5.5202,0 -8.8789,3.20115 -8.8789,8.46485 0,4.13564 3.55762,10.55169 5.26562,9.49609 0.9316,-0.57574 1.13199,-0.14453 0.58789,1.27344 -0.4527,1.17974 -0.35174,1.85353 0.22656,1.49609 0.5784,-0.35744 2.11943,0.21714 3.42383,1.27734 1.3044,1.06031 1.5273,1.49545 0.4961,0.96875 -1.6314,-0.83322 -1.64468,-0.67477 -0.10938,1.2168 0.9705,1.19577 2.0955,1.67074 2.5,1.05469 0.4044,-0.61607 1.57818,-1.13806 2.60938,-1.16016 1.0313,-0.0221 2.95168,-0.48486 4.26757,-1.02734 1.677,-0.69134 2.12535,-0.55215 1.49805,0.46289 -0.6067,0.98158 -0.18898,1.17685 1.29492,0.60742 1.3456,-0.51638 1.61106,-1.03266 0.68946,-1.33984 -0.8246,-0.27488 -1.5,-1.04796 -1.5,-1.71875 0,-0.67079 0.5625,-0.87217 1.25,-0.44727 1.8645,1.15234 1.52151,-5.06021 -0.55469,-10.0293 -2.9395,-7.0353 -7.33121,-10.5957 -13.06641,-10.5957 z m 3.08008,5.125 c 0.58719,-0.0172 1.72418,0.38523 3.66992,1.125 2.4431,0.92887 3.09697,1.85785 2.54297,3.60352 -0.4708,1.48331 -0.0405,2.621 1.16602,3.08398 2.0995,0.80565 2.66981,5.8125 0.66211,5.8125 -0.6875,0 -1.25,0.84375 -1.25,1.875 0,2.1131 -3.18322,2.55078 -4.38672,0.60352 -0.4318,-0.69871 -1.39638,-0.89283 -2.14258,-0.43164 -0.8165,0.50464 -0.99557,0.25577 -0.45117,-0.625 0.4974,-0.80475 1.38797,-1.16306 1.98047,-0.79688 0.5925,0.36617 1.3804,0.17632 1.75,-0.42187 0.3697,-0.59818 -0.73794,-1.73059 -2.46094,-2.51563 -2.6687,-1.21593 -2.92943,-1.80592 -1.76563,-3.98047 0.7514,-1.40396 1.01609,-3.65488 0.58789,-5.0039 -0.50411,-1.58833 -0.65736,-2.30595 0.0977,-2.32813 z m 144.77148,0.0137 c -0.40095,-9.6e-4 -0.63992,0.44669 -0.41601,0.7793 L 347,216.07031 c 0.35434,0.60344 1.2469,0.0195 0.83594,-0.54687 l -11.05078,-16.85742 c -0.0912,-0.14398 -0.24949,-0.23158 -0.41993,-0.23243 z m -16.29101,9.59571 c -0.40183,-0.003 -0.64238,0.44594 -0.41797,0.77929 l 11.64844,17.76758 c 0.36537,0.55483 1.19871,0.0109 0.83789,-0.54687 L 320.49414,208.2598 c -0.0917,-0.14323 -0.24986,-0.23005 -0.41992,-0.23047 z m -131.58399,2.91992 c 0.43424,-0.0179 0.92771,0.0616 1.37891,0.24219 0.9972,0.39903 0.70229,0.6939 -0.75391,0.7539 -1.3177,0.0543 -2.05602,-0.24089 -1.64062,-0.65625 0.20765,-0.20764 0.58139,-0.32197 1.01562,-0.33984 z m 117.50196,7.39648 c -0.40096,-9.7e-4 -0.63993,0.44669 -0.41602,0.7793 l 11.15039,17.00977 c 0.36318,0.57014 1.21469,0.0111 0.83594,-0.54883 l -11.15039,-17.00782 c -0.0912,-0.14397 -0.24948,-0.23157 -0.41992,-0.23242 z m -116.06055,3.11719 c -0.23484,-1.8e-4 -0.4485,0.0518 -0.62695,0.16211 -0.795,0.49135 -0.41192,1.44881 0.98828,2.47266 2.8175,2.06023 4.0089,1.18169 1.87891,-1.38477 -0.64756,-0.78024 -1.53574,-1.24946 -2.24024,-1.25 z m -6.06055,4.33203 c -8.8301,0 -17.22627,6.82859 -30.17187,23.9336 -7.47755,11.18528 -16.351,23.3896 -24.31445,33.22265 -8.65599,9.44667 -24.92726,24.03295 -29.582036,25.38281 -2.105749,0.61065 -5.628488,0.003 -7.658203,-0.84179 -10.7264,-4.6519 -16.601932,-12.34569 -28.007812,-23.97852 -11.10091,-11.32182 -21.56089,-17.71875 -28.96875,-17.71875 -6.342979,0 -17.627061,8.70757 -17.40625,13.82031 l 0.585937,16.44141 c 0,0 2.100475,3.17738 4.865235,3.28711 2.555733,0.10143 4.221327,1.71567 5.074218,2.32813 2.023735,1.45323 5.868498,5.13925 7.19336,6.40429 3.964544,2.11141 11.780945,10.38856 18.232422,12.69922 29.29013,11.01575 35.845865,17.30352 38.976562,20.86328 l -1.419922,0.94141 c -0.234445,0.1562 -0.29364,0.47515 -0.130859,0.70508 l 31.779298,44.67773 c 0.16256,0.22913 0.48192,0.27942 0.70703,0.11133 l 19.66016,-14.67188 c 0.53385,-0.39974 -0.0658,-1.20052 -0.59961,-0.80078 l -19.25,14.36328 -31.181644,-43.83593 1.105469,-0.73243 c 1.617307,1.87729 2.535986,2.85334 6.773435,3.30274 1.7936,1.17283 4.03015,2.89874 4.96875,3.83398 2.0049,1.99779 7.52258,2.69727 9.39258,2.69727 0.7071,0 0.85765,0.8335 1.27734,-0.9375 0.41192,-1.73817 -2.25535,-4.17578 -3.93945,-4.17578 -0.6806,0 -1.60396,-0.64341 -1.66992,-1.54688 -0.22147,-3.03345 -0.1684,-2.62798 4.00195,-2.80664 -2.97414,-0.0659 4.59253,-0.19856 0.96289,-4.4414 -1.13102,-1.52673 -1.75308,-2.23415 -2.10937,-2.57032 -0.2171,0.37526 -0.74833,-0.70604 0,0 0.0452,-0.0782 0.0762,-0.22025 0.0762,-0.45898 0,-1.01815 0.5625,-1.85156 1.25,-1.85156 2.40145,-2.18296 2.65258,-0.26155 5.46289,-0.21485 0.6875,0.4089 0.59961,-1.41114 1.97461,-0.95898 0.47435,-0.82969 2.26593,-0.50817 1.19336,-2.69141 l -1.35742,-1.01562 c -1.36471,-1.02336 4.80517,1.65093 4.26172,1.1914 -0.54346,-0.45954 -1.95315,-1.3521 -3.13086,-1.98242 l -0.96289,-0.79297 0.17382,-1.70703 c 1.38338,-1.77993 2.22234,-2.1794 4.10743,-1.32031 4.01234,3.39484 2.62728,-3.09743 10.27539,2.98047 1.01955,0.35997 3.538,3.08407 6.3125,3.29101 8.37698,2.79667 -7.66333,-7.41146 -8.65625,-9.10547 -4.62716,0.73632 -7.73627,-5.88606 -10.83203,-9.55664 -1.79754,-0.48768 -3.8591,-0.96756 -6.23829,-1.42968 -9.06869,-1.76157 -15.91843,0.24237 -14.05273,-0.77344 1.2817,-0.69785 6.99122,-4.88631 7.54102,-5.80664 8.11091,-6.04591 14.5281,-13.00613 19.58203,-18.88477 5.0423,-5.88312 7.71411,-8.81582 21.54101,-28.86914 7.2835,-10.56332 17.65415,-23.0466 22.71485,-25.60351 5.77761,-3.05431 14.7878,-4.62723 16.63086,4.88086 0,5.91866 -0.61674,10.41125 -4.33204,11.15429 -7.13927,1.30214 -13.942,7.48075 -16.8457,13.19922 -5.3664,10.56802 -5.58988,23.95595 -1.33008,38.00977 l 0.38086,0.90039 1.33399,-0.94532 c -0.91549,-2.60768 -1.79169,-5.48506 -2.58399,-8.95507 -2.61639,-19.54228 2.79377,-29.76503 9.44727,-35.64649 4.02204,-3.40178 6.53931,-3.93013 9.85156,-5.17578 3.2996,-0.7137 4.27944,-1.71018 5.30664,-5.4082 2.09112,-7.62754 -0.81127,-16.32955 -8.24219,-16.41016 z m 107.89844,1.6582 c -0.40184,-0.003 -0.64239,0.44595 -0.41797,0.7793 l 11.74805,17.92188 c 0.36586,0.5587 1.20389,0.01 0.83789,-0.54883 l -11.75,-17.91992 c -0.0908,-0.1434 -0.24823,-0.23092 -0.41797,-0.23243 z m -12.60547,8.26368 c -0.40094,-9.6e-4 -0.63991,0.44668 -0.41601,0.77929 l 12.24414,18.67969 c 0.36537,0.55483 1.19871,0.0109 0.83789,-0.54687 l -12.2461,-18.68164 c -0.0917,-0.14323 -0.24986,-0.23005 -0.41992,-0.23047 z m -10.89453,7.53515 0,0.002 c -0.37794,0.0303 -0.58593,0.45383 -0.37891,0.77148 l 4.41407,6.99219 c -1.07639,0.22479 -2.12101,0.76196 -2.8418,1.625 -1.82742,2.18807 -0.50506,4.8664 1.94336,3.93554 0.96285,-0.36606 1.75005,-0.21872 1.74805,0.32813 -0.002,0.54683 1.54419,0.80718 3.43554,0.57813 1.89134,-0.22904 5.68577,0.67753 8.43164,2.01562 6.19392,3.01838 6.86409,3.09839 6.8711,0.80664 1.05441,0.0644 0.37426,-2.95961 -3.26758,-5.25195 -2.66175,-0.24811 -6.15057,-0.75625 -7.75391,-1.12891 -1.83831,-0.42728 -2.61939,-0.19642 -2.11523,0.625 0.90701,1.47779 -0.007,1.59268 -4.01953,0.50391 -1.53785,-0.41729 -2.50241,-1.23235 -2.14258,-1.81055 0.35983,-0.57819 1.57073,-0.69575 2.69141,-0.26172 1.36203,0.52751 1.73981,0.30366 1.13867,-0.67578 -0.58507,-0.95325 -1.75236,-1.41174 -3.01367,-1.41211 l -4.67383,-7.40234 c -0.0977,-0.16189 -0.2783,-0.25485 -0.4668,-0.24024 z m -10.76758,6.85352 c -0.37867,0.0309 -0.58593,0.45614 -0.37695,0.77344 l 4.625,7.27343 c -2.28431,-0.24561 -4.70028,-0.52684 -6.7168,-0.79101 l -5.38281,-0.70508 -4.00195,1.64063 -0.006,1.85742 c -0.003,1.09595 0.55728,1.64542 1.24609,1.22265 0.68882,-0.42277 1.95482,-0.31981 2.8125,0.22852 2.11553,1.35251 3.78472,1.39796 5.48438,0.15039 1.50164,-1.10223 12.23499,-0.52437 18.57422,1 l 3.74804,0.90234 -2.14062,-2.26562 c -1.2505,-1.32308 -4.36507,-2.42628 -7.49219,-2.65625 -1.19632,-0.088 -3.03005,-0.27235 -4.86133,-0.46094 l -5.04492,-7.93164 c -0.0891,-0.14506 -0.24583,-0.23484 -0.41602,-0.23828 -0.0169,-8.6e-4 -0.0339,-8.6e-4 -0.0508,0 z m -22.07617,14.28515 c -0.40095,-9.6e-4 -0.63992,0.44669 -0.41601,0.7793 l 12.3457,18.83203 c 0.36318,0.57014 1.21469,0.0111 0.83594,-0.54883 L 235.8457,264.62109 c -0.0917,-0.14323 -0.24986,-0.23005 -0.41992,-0.23047 z m 10.72656,0.39063 c -2.99211,-0.0905 -4.94945,0.70196 -5.26757,2.35352 l -0.39063,2.02343 3.5,-0.5332 3.5,-0.53516 -2.50781,2.11719 -2.50586,2.11914 2.50391,-0.99609 c 1.37669,-0.54733 5.59639,-1.32205 9.3789,-1.72266 l 6.87891,-0.72851 -6.51563,-2.27344 c -3.29409,-1.14915 -6.24701,-1.75381 -8.57422,-1.82422 z m -20.74414,5.52539 c -0.40184,-0.003 -0.64239,0.44595 -0.41797,0.7793 l 12.64454,19.28711 c 0.35434,0.60349 1.24696,0.0195 0.83593,-0.54688 l -12.64453,-19.28906 c -0.0913,-0.14265 -0.24861,-0.22939 -0.41797,-0.23047 z m -8.6582,5.67383 c -0.40263,-0.002 -0.64244,0.44832 -0.41602,0.78125 l 12.64454,19.28711 c 0.36306,0.57069 1.21524,0.0112 0.83593,-0.54883 l -12.64453,-19.28711 c -0.0912,-0.14397 -0.24948,-0.23157 -0.41992,-0.23242 z m 38.75195,3.64062 c -0.95356,4.7e-4 -1.04247,1.496 -0.39062,4.8086 l 0.79687,4.05273 1.06055,-1.66015 c 1.4779,-2.31539 1.3652,-5.7279 -0.2207,-6.71485 -0.51433,-0.32008 -0.92824,-0.48649 -1.2461,-0.48633 z m -47.30273,1.53125 c -0.40263,-0.002 -0.64244,0.44832 -0.41602,0.78125 l 13.14063,20.04688 c 0.36509,0.56238 1.20757,0.0105 0.83789,-0.54883 L 208.61914,281.3848 c -0.0912,-0.14398 -0.24948,-0.23158 -0.41992,-0.23243 z m -7.8457,4.92578 c -0.40264,-0.002 -0.64246,0.44832 -0.41602,0.78126 l 13.93945,21.26171 c 0.36309,0.57051 1.21506,0.0112 0.83594,-0.54882 l -13.93945,-21.26172 c -0.0912,-0.14398 -0.24948,-0.23158 -0.41992,-0.23243 z m -7.44141,4.87891 c -0.40263,-0.002 -0.64244,0.44832 -0.41602,0.78125 l 14.03907,21.41211 c 0.3543,0.6036 1.24706,0.0195 0.83593,-0.54687 l -14.03906,-21.41407 c -0.0912,-0.14397 -0.24948,-0.23157 -0.41992,-0.23242 z m -6.48242,4.68555 c -0.40096,-9.7e-4 -0.63993,0.44669 -0.41602,0.7793 l 13.53906,20.65429 c 0.36318,0.57014 1.21469,0.0111 0.83594,-0.54883 l -13.53906,-20.65429 c -0.0917,-0.14323 -0.24986,-0.23005 -0.41992,-0.23047 z m -6.63086,4.1289 c -0.40096,-9.7e-4 -0.63993,0.44669 -0.41602,0.7793 l 13.83985,21.10938 c 0.35434,0.60349 1.24696,0.0195 0.83593,-0.54688 l -13.83984,-21.11133 c -0.0917,-0.14323 -0.24986,-0.23005 -0.41992,-0.23047 z m -5.86914,3.63086 c -0.40184,-0.003 -0.64239,0.44595 -0.41797,0.7793 l 13.93945,21.26172 c 0.35438,0.60333 1.2468,0.0195 0.83594,-0.54688 l -13.9375,-21.26171 c -0.0912,-0.14398 -0.24948,-0.23158 -0.41992,-0.23243 z m -5.77149,3.78321 c -0.40262,-0.002 -0.64243,0.44832 -0.41601,0.78125 l 13.83789,21.10937 c 0.36318,0.57014 1.21469,0.0111 0.83594,-0.54883 L 168.57812,307.418 c -0.0912,-0.14397 -0.24948,-0.23157 -0.41992,-0.23242 z m -8.54882,7.26172 c -0.94286,0.0569 -1.88677,0.40652 -2.71094,1.06835 l -1.24219,0.99805 c -2.1978,1.76491 -2.68326,5.05707 -1.08789,7.38086 l 12.11133,17.64063 c 1.59537,2.32379 4.64985,2.77467 6.84765,1.00976 l 1.24219,-0.99804 c 2.1978,-1.76491 2.68131,-5.05707 1.08594,-7.38086 l -12.10938,-17.64063 c -0.9971,-1.45237 -2.56529,-2.17295 -4.13671,-2.07812 z m -11.48243,11.53906 c -1.127,2.13465 -3.7357,0.9075 -2.72656,2.61914 3.12475,5.29998 0.32653,9.96003 -6.4375,9.45508 4.35136,5.12401 4.78667,7.4421 0.58203,8.61718 l -0.37695,4.09766 2.2207,3.05859 18.69141,-12.67968 z m 38.90625,12.80273 c -0.18889,0.0126 -0.20317,0.18441 -0.0176,0.53125 0.7224,1.34979 3.1545,4.00721 5.4043,5.9043 7.6224,6.42717 16.06467,8.42973 22.73047,5.39258 6.6328,-3.0221 13.57367,6.21824 8.70899,11.59375 -3.62932,4.01029 -5.62012,4.68359 -19.72852,6.66406 -7.26963,1.02047 -15.37121,2.95379 -18.00391,4.29688 -7.373,3.76143 -13.8194,11.87454 -19.875,25.01367 -12.9992,28.20491 -17.04781,34.37188 -27.04101,41.19336 -10.4561,7.13745 -24.19795,10.45763 -38.44532,7.67773 -11.83054,-1.58021 -26.769803,-14.53981 -32.566401,-19.54492 -6.604886,-5.70304 -4.6201,-2.06562 4.476562,5.33594 22.245203,18.94495 39.475039,18.96292 54.623049,14.14257 16.5941,-5.59013 26.02805,-16.17827 38.53125,-43.24023 4.0861,-8.84397 9.18648,-18.20077 11.33398,-20.79297 5.7275,-6.91319 13.64889,-10.41559 27.32227,-12.07812 14.20374,-1.727 20.81661,-4.89741 22.30859,-11.02344 l -0.51953,-5.87305 c -1.91849,-3.62181 -7.95406,-7.07378 -10.34961,-6.00976 -3.1657,1.40612 -6.89735,3.09189 -13.14844,1.0625 -1.6966,-0.42582 -6.9069,-2.83332 -10.7539,-5.9668 -2.96565,-2.41548 -4.42356,-4.31713 -4.99024,-4.2793 z m -98.329012,19.85458 -1.638787,1.40877 c -1.973175,1.76804 -2.104881,4.6011 -0.311495,6.77571 L 99.0241,384.25171 c 1.79338,2.17462 5.12013,2.47759 7.15435,0.52639 l 1.15039,-0.73721 c 2.58367,-1.4628 2.89852,-5.27264 1.10514,-7.44727 L 95.246094,358.67969 c -1.622312,-2.44379 -4.497929,-1.94989 -6.541906,-0.036 z m -7.797938,8.7548 c 0,-0.104 -0.194043,0.016 -0.269531,0.0586 l -8.507813,4.68164 c -3.464524,-2.98569 -5.38377,-0.87209 -8.93164,1.72071 l -14.583135,9.08596 c -2.542182,1.70063 -0.801318,4.33509 0.947542,6.95522 l -5.722794,4.93177 c 0,0 14.803163,22.70369 16.647748,21.85951 l 8.264775,-3.78238 c 2.037542,2.16097 2.48622,1.28438 3.267854,1.24751 l 18.857008,-12.86164 c 2.114403,-1.61137 0.867336,-4.15873 -0.868452,-6.65861 l 5.986329,-4.9668 C 96.152023,388.41373 81.197982,367.6872 80.90625,367.39847 Z m 46.15234,31.45508 c -1.47437,0.11728 -2.5743,1.40843 -2.45703,2.88281 0.11727,1.47438 1.40843,2.5743 2.88282,2.45703 1.47437,-0.11727 2.5743,-1.40843 2.45703,-2.88281 -0.11728,-1.47438 -1.40843,-2.57431 -2.88282,-2.45703 z m -12.5332,11.29492 c -2.21158,0.17591 -3.86146,2.11264 -3.68555,4.32422 0.17592,2.21157 2.1107,3.86145 4.32227,3.68554 2.21157,-0.17591 3.86145,-2.11265 3.68555,-4.32422 -0.17591,-2.21157 -2.1107,-3.86145 -4.32227,-3.68554 z m -11.80664,14.82031 c -2.21158,0.17591 -3.861457,2.11069 -3.685547,4.32227 0.175907,2.21158 2.110687,3.86145 4.322267,3.68554 2.21157,-0.17591 3.86146,-2.11069 3.68555,-4.32226 -0.17592,-2.21157 -2.1107,-3.86146 -4.32227,-3.68555 z"
           style="color:#000000;font-style:normal;font-variant:normal;font-weight:normal;font-stretch:normal;font-size:medium;line-height:normal;font-family:sans-serif;text-indent:0;text-align:start;text-decoration:none;text-decoration-line:none;text-decoration-style:solid;text-decoration-color:#000000;letter-spacing:normal;word-spacing:normal;text-transform:none;direction:ltr;block-progression:tb;writing-mode:lr-tb;baseline-shift:baseline;text-anchor:start;white-space:normal;clip-rule:nonzero;display:inline;overflow:visible;visibility:visible;opacity:1;isolation:auto;mix-blend-mode:normal;color-interpolation:sRGB;color-interpolation-filters:linearRGB;solid-color:#000000;solid-opacity:1;fill:#ffffff;fill-opacity:1;fill-rule:evenodd;stroke:none;stroke-width:1px;stroke-linecap:round;stroke-linejoin:miter;stroke-miterlimit:4;stroke-dasharray:none;stroke-dashoffset:0;stroke-opacity:1;color-rendering:auto;image-rendering:auto;shape-rendering:auto;text-rendering:auto;enable-background:accumulate" />
        <g
           id="g4309"
           transform="translate(595.04927,100.11344)">
          <ellipse
             style="color:#000000;clip-rule:nonzero;display:inline;overflow:visible;visibility:visible;opacity:1;isolation:auto;mix-blend-mode:normal;color-interpolation:sRGB;color-interpolation-filters:linearRGB;solid-color:#000000;solid-opacity:1;fill:#000000;fill-opacity:1;fill-rule:evenodd;stroke:#ffffff;stroke-width:1px;stroke-linecap:butt;stroke-linejoin:miter;stroke-miterlimit:4;stroke-dasharray:none;stroke-dashoffset:0;stroke-opacity:1;marker:none;color-rendering:auto;image-rendering:auto;shape-rendering:auto;text-rendering:auto;enable-background:accumulate"
             id="ellipse4303"
             cx="-241.91475"
             cy="338.50644"
             rx="3.3631859"
             ry="3.2067587" />
          <ellipse
             style="color:#000000;clip-rule:nonzero;display:inline;overflow:visible;visibility:visible;opacity:1;isolation:auto;mix-blend-mode:normal;color-interpolation:sRGB;color-interpolation-filters:linearRGB;solid-color:#000000;solid-opacity:1;fill:#000000;fill-opacity:1;fill-rule:evenodd;stroke:#ffffff;stroke-width:1px;stroke-linecap:butt;stroke-linejoin:miter;stroke-miterlimit:4;stroke-dasharray:none;stroke-dashoffset:0;stroke-opacity:1;marker:none;color-rendering:auto;image-rendering:auto;shape-rendering:auto;text-rendering:auto;enable-background:accumulate"
             id="ellipse4305"
             cx="-217.35567"
             cy="323.48944"
             rx="3.3631859"
             ry="3.2067587" />
          <ellipse
             style="color:#000000;clip-rule:nonzero;display:inline;overflow:visible;visibility:visible;opacity:1;isolation:auto;mix-blend-mode:normal;color-interpolation:sRGB;color-interpolation-filters:linearRGB;solid-color:#000000;solid-opacity:1;fill:#000000;fill-opacity:1;fill-rule:evenodd;stroke:#ffffff;stroke-width:1px;stroke-linecap:butt;stroke-linejoin:miter;stroke-miterlimit:4;stroke-dasharray:none;stroke-dashoffset:0;stroke-opacity:1;marker:none;color-rendering:auto;image-rendering:auto;shape-rendering:auto;text-rendering:auto;enable-background:accumulate"
             id="ellipse4307"
             cx="-234.87552"
             cy="365.09909"
             rx="3.3631859"
             ry="3.2067587" />
          <ellipse
             ry="3.2067587"
             rx="3.3631859"
             cy="345.70209"
             cx="-206.09291"
             id="path4301"
             style="color:#000000;clip-rule:nonzero;display:inline;overflow:visible;visibility:visible;opacity:1;isolation:auto;mix-blend-mode:normal;color-interpolation:sRGB;color-interpolation-filters:linearRGB;solid-color:#000000;solid-opacity:1;fill:#000000;fill-opacity:1;fill-rule:evenodd;stroke:#ffffff;stroke-width:1px;stroke-linecap:butt;stroke-linejoin:miter;stroke-miterlimit:4;stroke-dasharray:none;stroke-dashoffset:0;stroke-opacity:1;marker:none;color-rendering:auto;image-rendering:auto;shape-rendering:auto;text-rendering:auto;enable-background:accumulate" />
        </g>
      </g>
    </g>
  </g>
</svg>
